<svg xmlns="http://www.w3.org/2000/svg" xmlns:xlink="http://www.w3.org/1999/xlink" version="1.1" id="图层_1" x="0px" y="0px" viewBox="0 0 45 33" style="enable-background:new 0 0 45 33;" xml:space="preserve"><script xmlns=""/>
<style type="text/css">
	.st0{display:none;fill:#FF1D25;}
	.st1{fill:none;}
	.st2{fill:#FFFFFF;}
	.st3{display:none;}
	.st4{display:inline;fill:none;}
	.st5{display:inline;fill:#FFFFFF;}
</style>
<rect x="-44" y="-27" class="st0" width="139" height="133"/>
<g>
	<path class="st1" d="M35.7,2.5h-26c-3.9,0-7,3.1-7,7v14c0,3.9,3.1,7,7,7h26c3.9,0,7-3.1,7-7v-14C42.7,5.7,39.6,2.5,35.7,2.5z    M20.8,25.1H8V7.9h12.4v2H10.3v5.3h9.5v2h-9.5v5.8h10.5V25.1z M37.5,25.1h-2.3l-9-13.5v13.5h-2.2V7.9h2.3l9,13.5V7.9h2.2V25.1z"/>
	<path class="st2" d="M35.7,0.5h-26c-5,0-9,4-9,9v14c0,5,4,9,9,9h26c5,0,9-4,9-9v-14C44.7,4.6,40.7,0.5,35.7,0.5z M42.7,23.5   c0,3.9-3.1,7-7,7h-26c-3.9,0-7-3.1-7-7v-14c0-3.9,3.1-7,7-7h26c3.9,0,7,3.1,7,7V23.5z"/>
	<polygon class="st2" points="10.3,17.2 19.8,17.2 19.8,15.2 10.3,15.2 10.3,10 20.4,10 20.4,7.9 8,7.9 8,25.1 20.8,25.1 20.8,23.1    10.3,23.1  "/>
	<polygon class="st2" points="35.3,21.4 26.3,7.9 23.9,7.9 23.9,25.1 26.1,25.1 26.1,11.6 35.1,25.1 37.5,25.1 37.5,7.9 35.3,7.9     "/>
</g>
<g class="st3">
	<rect x="6.7" y="12.9" class="st4" width="4.9" height="4.6"/>
	<path class="st4" d="M27.9,12.9c0.9,2.2,2.2,4.2,3.8,5.9c1.5-1.6,2.7-3.5,3.6-5.9H27.9z"/>
	<rect x="13.5" y="12.9" class="st4" width="4.9" height="4.6"/>
	<path class="st4" d="M35.7,2.5h-26c-3.9,0-7,3.1-7,7v14c0,3.9,3.1,7,7,7h26c3.9,0,7-3.1,7-7v-14C42.7,5.7,39.6,2.5,35.7,2.5z    M20.3,20.3h-1.8v-1h-4.9v6h-1.8v-6H6.7v1.1H5v-9.2h6.7V7.9h1.8v3.3h6.8V20.3z M39.3,25.2c-3-0.8-5.5-2.2-7.6-4   c-2.1,1.8-4.7,3.1-7.8,4.1c-0.2-0.5-0.7-1.3-1.1-1.7c3.1-0.8,5.5-2,7.6-3.6c-1.8-2-3.2-4.3-4.3-7.1h-2.9v-1.7h8.2   c-0.2-0.8-0.8-2-1.3-2.9l1.9-0.6c0.6,0.9,1.2,2.1,1.4,2.9l-1.7,0.5h8.5v1.7h-2.9c-1,2.9-2.4,5.2-4.2,7.1c2,1.7,4.5,2.9,7.4,3.6   C40.1,23.9,39.6,24.7,39.3,25.2z"/>
	<path class="st5" d="M13.5,7.9h-1.8v3.3H5v9.2h1.8v-1.1h4.9v6h1.8v-6h4.9v1h1.8v-9.1h-6.8V7.9z M11.7,17.5H6.7v-4.6h4.9V17.5z    M18.4,12.9v4.6h-4.9v-4.6H18.4z"/>
	<path class="st5" d="M37.2,12.9h2.9v-1.7h-8.5l1.7-0.5c-0.2-0.8-0.9-2-1.4-2.9l-1.9,0.6c0.5,0.9,1,2.1,1.3,2.9h-8.2v1.7h2.9   c1.1,2.8,2.5,5.1,4.3,7.1c-2,1.7-4.5,2.8-7.6,3.6c0.4,0.4,0.9,1.2,1.1,1.7c3.1-1,5.7-2.3,7.8-4.1c2.1,1.8,4.6,3.1,7.6,4   c0.3-0.5,0.8-1.3,1.2-1.6c-2.9-0.7-5.4-2-7.4-3.6C34.8,18.1,36.2,15.7,37.2,12.9z M27.9,12.9h7.4c-0.9,2.3-2,4.3-3.6,5.9   C30.1,17.1,28.8,15.1,27.9,12.9z"/>
	<path class="st5" d="M35.7,0.5h-26c-5,0-9,4-9,9v14c0,5,4,9,9,9h26c5,0,9-4,9-9v-14C44.7,4.6,40.7,0.5,35.7,0.5z M42.7,23.5   c0,3.9-3.1,7-7,7h-26c-3.9,0-7-3.1-7-7v-14c0-3.9,3.1-7,7-7h26c3.9,0,7,3.1,7,7V23.5z"/>
</g>
<script xmlns=""/></svg>